<svg width="24" height="18" viewBox="0 0 24 18" fill="none" xmlns="http://www.w3.org/2000/svg">
<path d="M8.74119 6.18375C9.48969 7.93425 11.7644 8.80125 13.4812 7.9545C15.7747 7.0215 16.2982 3.65325 14.4382 2.0685C11.6024 -0.575248 7.12869 2.6355 8.74119 6.18375ZM15.9044 9.7545C15.1859 9.29775 14.3107 9.0525 13.4219 9.0435C13.3169 9.0405 10.3139 9.0345 10.3162 9.0585C7.85619 9.171 5.85894 11.25 5.85969 13.761C5.90169 14.1773 5.79219 15.441 5.92494 15.8295C6.05689 16.387 6.37297 16.8836 6.82208 17.2392C7.27119 17.5948 7.82709 17.7886 8.39994 17.7893H15.5999C17.0129 17.7953 18.1544 16.6155 18.1402 15.249V13.761C18.1396 12.9581 17.9339 12.1687 17.5428 11.4676C17.1517 10.7665 16.588 10.1768 15.9052 9.7545H15.9044Z" fill="#4888FF" fill-opacity="0.5"/>
<path d="M3.1815 15.8295H4.82175C4.728 15.45 4.7865 14.0633 4.77075 13.6523C4.79683 12.4215 5.21186 11.2305 5.95638 10.2501C6.70089 9.26967 7.73666 8.5501 8.91525 8.1945C8.7 8.0235 8.511 7.7955 8.33475 7.59225C8.1736 7.57142 8.01124 7.5614 7.84875 7.56225H5.199C4.01928 7.56384 2.88835 8.03329 2.05431 8.86762C1.22026 9.70195 0.751191 10.833 0.75 12.0128V13.3995C0.750199 14.0442 1.00646 14.6625 1.46243 15.1183C1.91841 15.5742 2.53676 15.8295 3.1815 15.8295ZM6.52725 7.0185C6.98475 7.0185 7.41225 6.9315 7.812 6.76425C7.46417 6.07235 7.29919 5.30294 7.33275 4.52925C7.35479 3.89418 7.50656 3.27033 7.77871 2.69611C8.05086 2.12188 8.43764 1.60942 8.91525 1.19025C6.876 -0.917996 3.0525 0.642754 3.11625 3.615C3.11625 5.487 4.64775 7.0185 6.52725 7.0185ZM18.801 7.563H16.1512C15.63 7.452 15.4358 7.9095 15.0848 8.1945C16.045 8.4806 16.9134 9.01359 17.6033 9.74025C18.62 10.792 19.2009 12.1897 19.2292 13.6523C19.2143 14.0685 19.2705 15.4373 19.1782 15.8295H20.8185C21.4632 15.8295 22.0816 15.5734 22.5376 15.1176C22.9935 14.6618 23.2498 14.0435 23.25 13.3988V12.012C23.2484 10.8325 22.7792 9.70185 21.9452 8.86784C21.1112 8.03383 19.9805 7.56459 18.801 7.563ZM16.377 3.0705C16.602 3.66606 16.7013 4.30172 16.6688 4.93751C16.6362 5.57331 16.4726 6.19551 16.188 6.765C16.595 6.93454 17.0319 7.02074 17.4728 7.0185C21.9803 6.8715 21.9795 0.351754 17.4728 0.210754C16.5792 0.211942 15.7218 0.563637 15.0848 1.19025C15.6665 1.69862 16.1109 2.34524 16.377 3.0705Z" fill="#4888FF" fill-opacity="0.5"/>
</svg>
