<svg width="16" height="24" viewBox="0 0 16 24" fill="none" xmlns="http://www.w3.org/2000/svg">
<path d="M13.9693 0H2.03073C1.41841 0 0.923462 0.495781 0.923462 1.10727V22.8923C0.923462 23.5042 1.41885 24 2.03073 24H13.9693C14.5808 24 15.0766 23.5042 15.0766 22.8923V1.10727C15.077 0.495386 14.5808 0 13.9693 0ZM6.77667 1.30677H9.22257C9.35042 1.30677 9.4535 1.4099 9.4535 1.5377C9.4535 1.6655 9.35042 1.76863 9.22257 1.76863H6.77667C6.6497 1.76863 6.54574 1.6655 6.54574 1.5377C6.54574 1.4099 6.6497 1.30677 6.77667 1.30677ZM9.47699 22.0302H6.52269C6.28045 22.0302 6.08388 21.834 6.08388 21.5918C6.08388 21.3496 6.28045 21.1534 6.52269 21.1534H9.47695C9.71914 21.1534 9.91488 21.3496 9.91488 21.5918C9.91492 21.8341 9.71962 22.0302 9.47699 22.0302ZM13.6927 19.446H2.30737V3.7535H13.6927V19.446Z" fill="#4888FF" fill-opacity="0.5"/>
</svg>
