<svg xmlns="http://www.w3.org/2000/svg" width="8" height="14" viewBox="0 0 8 14" fill="none" aria-hidden="true" focusable="false">
  <path d="M6.336 0.346H1.664c-.219 0-.435.042-.637.126a1.66 1.66 0 0 0-.54.346A1.656 1.656 0 0 0 .126 1.373 1.644 1.644 0 0 0 0 2.01v9.98a1.654 1.654 0 0 0 1.664 1.664h4.672c.219 0 .435-.042.637-.126a1.654 1.654 0 0 0 .54-.346c.154-.154.277-.338.36-.54.084-.202.126-.419.126-.637V2.01c0-.219-.042-.435-.126-.637a1.656 1.656 0 0 0-.36-.54 1.66 1.66 0 0 0-.54-.346 1.644 1.644 0 0 0-.637-.126zM4.008 12.58a.756.756 0 1 1 0-1.512.756.756 0 0 1 0 1.512zM7.244 10.266H.756V2.569h6.488v7.697z" fill="#343A3F" fill-opacity="0.5"></path>
</svg>
