<svg width="39" height="39" viewBox="0 0 39 39" fill="none" xmlns="http://www.w3.org/2000/svg">
<path d="M19.5 38.2917C21.9688 38.2984 24.4143 37.8154 26.6951 36.8706C28.9759 35.9258 31.0467 34.5379 32.7874 32.7874C33.1077 32.4671 33.2876 32.0326 33.2876 31.5796C33.2876 31.1266 33.1077 30.6922 32.7874 30.3718L21.9156 19.5L32.7874 8.62816C33.1077 8.3078 33.2876 7.87336 33.2876 7.42037C33.2876 6.96738 33.1077 6.53294 32.7874 6.21258C30.6023 4.02732 27.9119 2.41471 24.9546 1.51758C21.9974 0.62045 18.8645 0.466503 15.8335 1.06937C12.8025 1.67224 9.96704 3.01332 7.57816 4.97382C5.18928 6.93431 3.32078 9.4537 2.13817 12.3088C0.955553 15.1639 0.495334 18.2666 0.798276 21.3421C1.10122 24.4176 2.15797 27.3709 3.87492 29.9404C5.59188 32.5099 7.91604 34.6163 10.6415 36.073C13.367 37.5297 16.4097 38.2918 19.5 38.2917ZM19.5 4.125C22.9892 4.11496 26.3765 5.30093 29.0974 7.48529L18.2922 18.2922C17.972 18.6126 17.7921 19.047 17.7921 19.5C17.7921 19.953 17.972 20.3874 18.2922 20.7078L29.0974 31.5147C27.1784 33.047 24.9203 34.0974 22.512 34.5778C20.1037 35.0583 17.6154 34.9549 15.2553 34.2763C12.8952 33.5977 10.7319 32.3637 8.94663 30.6775C7.16133 28.9912 5.80592 26.9019 4.99383 24.5843C4.18175 22.2668 3.93662 19.7884 4.27897 17.3566C4.62132 14.9249 5.54118 12.6105 6.96156 10.6072C8.38194 8.60391 10.2615 6.97 12.443 5.84222C14.6244 4.71444 17.0443 4.1256 19.5 4.125ZM38.2917 19.5C38.2917 20.1757 38.0913 20.8363 37.7159 21.3982C37.3405 21.9601 36.8068 22.398 36.1825 22.6566C35.5582 22.9152 34.8712 22.9828 34.2085 22.851C33.5457 22.7192 32.9369 22.3938 32.4591 21.9159C31.9813 21.4381 31.6558 20.8293 31.524 20.1666C31.3922 19.5038 31.4598 18.8168 31.7184 18.1925C31.977 17.5682 32.415 17.0346 32.9768 16.6591C33.5387 16.2837 34.1993 16.0833 34.875 16.0833C35.7812 16.0833 36.6502 16.4433 37.291 17.084C37.9317 17.7248 38.2917 18.5938 38.2917 19.5ZM12.6667 10.9583C12.6667 10.2826 12.8671 9.622 13.2425 9.06013C13.6179 8.49826 14.1515 8.06034 14.7759 7.80174C15.4002 7.54314 16.0872 7.47548 16.7499 7.60731C17.4127 7.73914 18.0215 8.06455 18.4993 8.54238C18.9771 9.02021 19.3025 9.629 19.4344 10.2918C19.5662 10.9545 19.4986 11.6415 19.24 12.2658C18.9814 12.8901 18.5434 13.4238 17.9816 13.7992C17.4197 14.1746 16.7591 14.375 16.0834 14.375C15.1772 14.375 14.3082 14.015 13.6674 13.3743C13.0267 12.7335 12.6667 11.8645 12.6667 10.9583Z" fill="white"/>
</svg>
